<svg xmlns="http://www.w3.org/2000/svg" width="33" height="30" viewBox="0 0 33 30">
    <g fill="none" fill-rule="nonzero">
        <path fill="#FFF" d="M25.067 19.843c.945 3.86.607 6.927-1.18 7.96-1.788 1.032-4.614-.21-7.484-2.958-2.87 2.748-5.696 3.99-7.484 2.957-1.787-1.032-2.125-4.1-1.18-7.959-3.815-1.112-6.303-2.938-6.303-5.002 0-2.065 2.488-3.891 6.303-5.003-.945-3.859-.607-6.927 1.18-7.96 1.788-1.031 4.614.21 7.484 2.958 2.87-2.748 5.696-3.99 7.483-2.957 1.788 1.032 2.126 4.1 1.181 7.96 3.815 1.111 6.303 2.937 6.303 5.002 0 2.064-2.488 3.89-6.303 5.002z"/>
        <path fill="#FFF" d="M0 14.909c0 2.513 2.435 4.86 6.274 6.183-.767 3.89-.137 7.025 1.964 8.247 2.16 1.256 5.38.386 8.434-2.305 2.977 2.583 5.987 3.6 8.087 2.374 2.158-1.26 2.814-4.608 2.026-8.62 3.999-1.332 6.236-3.333 6.236-5.88 0-2.455-2.44-4.579-6.227-5.893.848-4.177.13-7.237-2.06-8.509C22.625-.72 19.58.35 16.56 3 13.415.186 10.4-.673 8.215.603c-2.108 1.23-2.71 4.422-1.94 8.384C2.564 10.291 0 12.463 0 14.91z"/>
        <path fill="#53C1DE" d="M25.759 10.304c-.312-.109-.625-.21-.942-.302.053-.217.101-.435.146-.653.712-3.522.246-6.358-1.344-7.292-1.525-.896-4.02.038-6.54 2.27-.247.22-.49.447-.727.68-.159-.154-.32-.306-.485-.455-2.64-2.387-5.286-3.393-6.875-2.456-1.524.898-1.975 3.565-1.334 6.902.064.33.136.659.216.986-.374.108-.736.223-1.082.346-3.095 1.099-5.072 2.821-5.072 4.607 0 1.845 2.122 3.696 5.346 4.818.262.09.525.174.79.251-.086.352-.162.707-.229 1.063-.612 3.28-.134 5.883 1.386 6.775 1.57.922 4.204-.025 6.77-2.308.202-.18.405-.372.61-.573.256.252.52.497.79.734 2.484 2.177 4.939 3.056 6.457 2.161 1.568-.924 2.078-3.72 1.416-7.124-.05-.26-.11-.525-.175-.796.185-.055.366-.113.543-.173 3.352-1.13 5.533-2.958 5.533-4.828 0-1.792-2.04-3.526-5.198-4.633z"/>
        <path fill="#FFF" d="M24.889 18.87c-.16.054-.325.105-.493.156a29.68 29.68 0 0 0-1.485-3.738 29.67 29.67 0 0 0 1.427-3.683c.3.087.592.18.872.277 2.715.94 4.371 2.33 4.371 3.4 0 1.14-1.788 2.62-4.692 3.589zm-1.205 2.402c.294 1.49.336 2.84.141 3.893-.175.947-.526 1.579-.96 1.832-.925.538-2.902-.162-5.034-2.007-.245-.211-.49-.437-.738-.676a29.592 29.592 0 0 0 2.46-3.14 29.1 29.1 0 0 0 3.972-.616c.06.243.113.48.16.714zM11.5 26.904c-.904.32-1.623.33-2.058.078-.925-.537-1.31-2.61-.785-5.388.062-.329.134-.655.214-.98 1.202.268 2.532.46 3.953.576a30.636 30.636 0 0 0 2.519 3.129c-.182.177-.369.35-.56.517-1.138 1-2.278 1.71-3.283 2.068zm-4.232-8.04c-1.43-.492-2.612-1.131-3.421-1.828-.728-.627-1.095-1.25-1.095-1.754 0-1.074 1.592-2.445 4.248-3.376.334-.116.67-.223 1.01-.32.367 1.201.849 2.457 1.43 3.726a30.793 30.793 0 0 0-1.448 3.78c-.243-.07-.484-.147-.724-.229zm1.419-9.71c-.552-2.835-.186-4.972.736-5.508.981-.572 3.151.243 5.439 2.285.146.131.293.268.44.41a30.17 30.17 0 0 0-2.5 3.11c-1.379.128-2.7.334-3.914.611a18.569 18.569 0 0 1-.201-.909zm12.654 3.142c-.287-.499-.585-.99-.892-1.476.936.119 1.832.277 2.674.47a26.982 26.982 0 0 1-.938 2.54 44 44 0 0 0-.844-1.534zM16.18 7.24a26.92 26.92 0 0 1 1.726 2.096 36.694 36.694 0 0 0-3.467-.001 27.757 27.757 0 0 1 1.74-2.095zm-5.194 5.063a37.31 37.31 0 0 0-.828 1.526 27.917 27.917 0 0 1-.932-2.553 28.13 28.13 0 0 1 2.66-.46c-.312.49-.612.985-.9 1.487zm.926 7.532a26.544 26.544 0 0 1-2.703-.437c.259-.842.578-1.716.95-2.605a37.08 37.08 0 0 0 1.753 3.042zm4.302 3.576a28.29 28.29 0 0 1-1.765-2.125c.562.023 1.134.034 1.716.034.598 0 1.19-.014 1.771-.04a26.773 26.773 0 0 1-1.722 2.13zm5.981-6.663c.393.899.723 1.768.986 2.595-.851.195-1.77.352-2.737.47.31-.495.61-.996.9-1.502.296-.515.58-1.036.851-1.563zm-1.936.933a41.362 41.362 0 0 1-1.407 2.284c-.87.062-1.77.095-2.687.095a40.9 40.9 0 0 1-2.656-.085 35.78 35.78 0 0 1-2.685-4.664 35.448 35.448 0 0 1 2.67-4.656 35.306 35.306 0 0 1 5.348.001c.497.74.969 1.497 1.413 2.27.447.775.869 1.565 1.265 2.367-.392.811-.813 1.608-1.26 2.388zm2.585-14.074c.983.57 1.365 2.868.748 5.88-.04.197-.085.392-.132.587a29.864 29.864 0 0 0-3.923-.623 29.578 29.578 0 0 0-2.48-3.113c.22-.213.445-.42.675-.622 2.166-1.895 4.19-2.644 5.112-2.109z"/>
        <path fill="#53C1DE" d="M16.338 12.727a2.58 2.58 0 1 1 0 5.16 2.58 2.58 0 0 1 0-5.16"/>
    </g>
</svg>
